<svg id="Layer_1" data-name="Layer 1" xmlns="http://www.w3.org/2000/svg" viewBox="0 0 500 300"><defs><style>.cls-1,.cls-2{fill:none;stroke:#00cc6c;stroke-linecap:round;stroke-miterlimit:10;}.cls-1{stroke-width:2px;}.cls-2{stroke-width:6px;}.cls-3{fill:#fff;}.cls-4{isolation:isolate;}</style></defs><title>maggies-logo-shadow</title><g id="Layer_1-2" data-name="Layer 1"><g id="chef_hat" data-name="chef hat"><path class="cls-1" d="M340.38,25.9V39.6a1.58,1.58,0,0,0,1.6,1.6h16.9a1.58,1.58,0,0,0,1.6-1.6h0V25.9"/><path class="cls-1" d="M367.78,18.6a7.28,7.28,0,0,1-7.3,7.3,6.9,6.9,0,0,1-4.5-1.6,10,10,0,0,1-11,0,7.33,7.33,0,1,1-9.1-11.5,7.46,7.46,0,0,1,5.8-1.5,10,10,0,0,1,17.7,0,7.36,7.36,0,0,1,8.5,6.1,4.87,4.87,0,0,0-.1,1.2Z"/><path class="cls-1" d="M340.88,19a9.92,9.92,0,0,0,12.5,6.5,10,10,0,0,0,6.5-6.5"/></g><line class="cls-2" x1="11.68" y1="134.6" x2="487.48" y2="134.6"/><path class="cls-3" d="M23.78,89.3v29.8c0,4.1,1.1,5.5,5.5,5.5v2.2H11.68v-2.2c4.4,0,5.5-1.4,5.5-5.5V68.9a3.77,3.77,0,0,0-1.4-3.3,7.38,7.38,0,0,0-4.1-.8V62.6c4.7,0,8.2-.5,10.7-1.7h1.4v8.5c3-5.8,9.6-9.4,16.5-9.4,9.1,0,15.2,3.9,18.5,11.6,3.3-7.4,11-11.6,19.8-11.6,13.5,0,20.1,9.1,20.1,27v32c0,4.1,1.1,5.5,5.5,5.5v2.2H86.58v-2.2c4.4,0,5.5-1.4,5.5-5.5V89.3c0-13-4.7-19.3-14.1-19.3-12.3,0-16.7,6.9-16.7,19.3v29.8c0,4.1,1.1,5.5,5.5,5.5v2.2H49.18v-2.2c4.4,0,5.5-1.4,5.5-5.5V89.3c0-12.1-3.3-19.3-14.6-19.3C27.68,70,23.78,77.2,23.78,89.3Z"/><path class="cls-3" d="M165.68,126.8l-1.6-9.1h-.3a30,30,0,0,1-22.9,10.5c-19.6,0-33.1-15.4-33.1-35.3s12.9-33.3,32.8-33.3a40.17,40.17,0,0,1,12.9,2.2,19.82,19.82,0,0,0,6.3,1.4c3.3,0,5.5-.8,6.3-2.2h6.3v65.8ZM115,92.9c0,16.8,10.5,28.7,25.9,28.7s25.9-11.8,25.9-29.5c0-15.4-10.7-25.9-26.4-25.9C125.18,66.2,115,77.2,115,92.9Z"/><path class="cls-3" d="M254.08,76.4c-4.1,0-8.5-5-10.5-5a7.18,7.18,0,0,0-3.9,1.9c4.1,4.7,6.1,11,6.1,18.7v96.2a46.45,46.45,0,0,1-46.3,46.6c-25.6,0-46.3-21.2-46.3-46.6s21.2-46.6,46.6-46.6c16.5,0,30.6,6.3,30.6,16.5,0,4.4-2.8,8.3-7.4,8.3-5.8,0-7.2-3.3-8.3-11.3-.8-6.3-6.9-7.4-14.9-7.4-21.5,0-40.2,18.5-40.2,40.5a40,40,0,1,0,79.9,1.3V144.4c0-6.6-9.4-16.5-25.9-16.5-20.7,0-33.1-13.8-33.1-33.9,0-19,14.6-34.4,33.6-34.4a29,29,0,0,1,20.4,7.7c6.6-5.2,11.9-7.7,15.7-7.7,6.3,0,10.7,3,10.7,8.5C261,73.3,257.68,76.4,254.08,76.4Zm-40.7-10.2c-14.6,0-25.6,13-25.6,27.6,0,15.4,10.5,27.6,26.2,27.6,16.3,0,25.4-11.8,25.4-28.4C239.28,77.5,229.08,66.2,213.38,66.2Z"/><path class="cls-3" d="M329.28,76.1c-1.4,0-3.3-1.1-6.3-3.6-1.4-.8-2.2-1.4-3-1.4a7.18,7.18,0,0,0-3.9,1.9c2.5,3,6.1,9.6,6.1,16.3v127c.8,41.6-35.8,78.2-77.1,77.4-41.6.8-78-35.8-77.1-77.4-.8-41.3,35.5-78,77.1-77.1a70.32,70.32,0,0,1,25.3,4.1c6.1,2.2,10.7,5,14,8.5a14.52,14.52,0,0,1,3.9,9.9c0,5-1.9,8-5.8,9.4a15.06,15.06,0,0,1-3.6.6c-5.2,0-8.5-3.6-8.5-8.8l.3-7.2c0-3.6-1.6-5.2-5.2-6.3a78,78,0,0,0-20.4-3c-37.7-.8-70.8,32.2-70,70-.8,38.3,32.2,71.1,70,70.3,37.7.8,70.8-32,70-70.3V144.5c-.8-7.7-8.3-16.5-24-16.5-20.9,0-33.3-13.5-33.3-34.2,0-19.6,13.8-34.4,32.8-34.4A29,29,0,0,1,311,67.1c6.3-5.2,11.6-7.7,15.7-7.7,6.3,0,9.4,3,9.4,9.1C336,73.6,333.68,76.1,329.28,76.1Zm-39.6-10.7c-15.1,0-25.6,13-25.6,28.1,0,15.7,10.5,28.9,26.2,28.9s25.9-12.9,25.9-29.8C316.08,77.2,305.38,65.4,289.68,65.4Z"/><path class="cls-3" d="M359.88,124.6v2.2H342v-2.2c4.1,0,5.5-1.4,5.5-5.5V70.6c0-2.5-.5-4.1-1.9-5a6.57,6.57,0,0,0-3.9-.8V62.6A39.68,39.68,0,0,0,353,60.9h1.4V119C354.38,123.2,355.78,124.6,359.88,124.6Z"/><path class="cls-3" d="M397.88,59.6c17.6,0,34.7,16,34.7,34.2l-.3,1.9h-62.5c.8,15.7,12.1,25.9,29.5,25.9,4.4,0,6.9-1.4,7.4-3.9,1.1-5.2,3.6-7.7,7.7-7.7,4.4,0,7.4,3,7.4,7.2,0,7.7-11.9,11-23.7,11-21.2,0-35.5-15.1-35.5-34.7C362.68,75.6,378.38,59.6,397.88,59.6Zm.3,6.6c-14,0-25.9,9.4-28.4,23.4H426C423.78,76.4,411.68,66.2,398.18,66.2Z"/><path class="cls-3" d="M434,47l-4.4-1.4,9.1-40.7,9.1,2.8Z"/><path class="cls-3" d="M487.48,107.5c0,12.1-9.1,20.7-21.2,20.7a48.28,48.28,0,0,1-15.1-2.5c-5-1.7-7.4-4.4-7.4-8.5a7,7,0,0,1,6.8-7.2h.3c4.1,0,6.6,2.8,7.4,8,.3,2.5,3.9,4.1,7.4,4.1,8.5,0,15.4-6.1,15.4-14.9,0-7.4-4.4-9.9-13-12.9-12.4-4.4-19.3-8.3-19.3-18.2,0-9.6,8-16.5,17.9-16.5a19.46,19.46,0,0,1,17.1,10.2l-5.8,3c-2.5-5-6.3-7.4-11.6-7.4-5.8,0-11.3,4.7-11.3,10.2,0,6.9,4.4,9.1,15.1,12.7C481.08,92.4,487.48,96.5,487.48,107.5Z"/></g><g class="cls-4"><path class="cls-3" d="M338.34,252.53a6.18,6.18,0,0,1-6.47,6.3,15.19,15.19,0,0,1-4.62-.76c-1.51-.5-2.27-1.34-2.27-2.6a2.12,2.12,0,0,1,2.18-2.18c1.26,0,2,.84,2.27,2.44.08.76,1.18,1.26,2.27,1.26a4.51,4.51,0,0,0,4.7-4.54c0-2.27-1.34-3-3.95-3.95-3.78-1.34-5.88-2.52-5.88-5.54a5.16,5.16,0,0,1,5.46-5,5.94,5.94,0,0,1,5.21,3.11l-1.76.92a3.72,3.72,0,0,0-3.53-2.27,3.41,3.41,0,0,0-3.44,3.11c0,2.1,1.34,2.77,4.62,3.86C336.41,247.91,338.34,249.17,338.34,252.53Z"/><path class="cls-3" d="M343.55,248.58v7.48c0,1.26.34,1.68,1.68,1.68v.67h-5.38v-.67c1.34,0,1.68-.42,1.68-1.68V241.28c0-.76-.17-1.26-.59-1.51a2,2,0,0,0-1.18-.25v-.67a11.34,11.34,0,0,0,3.36-.5h.42v3.19a6.62,6.62,0,0,1,6-3.44c5,0,6.64,2.77,6.64,8.23v9.74c0,1.26.34,1.68,1.68,1.68v.67h-5.38v-.67c1.34,0,1.68-.42,1.68-1.68v-7.48c0-5-.67-7.48-4.79-7.48C344.72,241.11,343.55,243.79,343.55,248.58Z"/><path class="cls-3" d="M377,258.41l-.5-2.77h-.08a9.12,9.12,0,0,1-7,3.19c-6,0-10.08-4.7-10.08-10.75s3.95-10.16,10-10.16a12.17,12.17,0,0,1,3.95.67,6.18,6.18,0,0,0,1.93.42c1,0,1.68-.25,1.93-.67h1.93v20.08Zm-15.46-10.33c0,5.12,3.19,8.74,7.9,8.74s7.9-3.61,7.9-9c0-4.7-3.28-7.9-8.06-7.9C364.63,239.93,361.52,243.29,361.52,248.08Z"/><path class="cls-3" d="M399,256.06a11.09,11.09,0,0,1-7.39,2.77,9.78,9.78,0,0,1-7.39-3.11,10.53,10.53,0,0,1-3-7.56,9.69,9.69,0,0,1,3-7.31,10.47,10.47,0,0,1,7.48-2.94c2.94,0,6.22,1.18,6.22,3.28a2.21,2.21,0,0,1-2.27,2.27c-1.26,0-2-.76-2.35-2.35-.25-.76-1-1.18-2.27-1.18-4,0-7.64,3.78-7.64,8.23,0,4.62,3.53,8.65,8.15,8.65a9.78,9.78,0,0,0,5.71-1.76Z"/><path class="cls-3" d="M405.79,258.41h-5.54v-.67c1.26,0,1.68-.42,1.68-1.68v-46.2c0-.76-.17-1.26-.59-1.51a2.22,2.22,0,0,0-1.18-.25v-.67a12.62,12.62,0,0,0,3.53-.5H404v40l6.55-6.8c.25-.25.34-.42.34-.59,0-.34-.5-.5-1.43-.5v-.67h5.71V239a3.47,3.47,0,0,0-2.27,1.26l-6.55,6.8c3.78,3.95,6.89,7.06,9.32,9.49a3.34,3.34,0,0,0,2.18,1.18v.67h-5.8v-.67c1.09,0,1.6-.17,1.6-.5a.77.77,0,0,0-.25-.42l-3.95-3.95-1.43-1.43a4.35,4.35,0,0,0-2.52-1.43,1.55,1.55,0,0,0-1.43,1.51v4.54c0,1.26.34,1.68,1.68,1.68Z"/><path class="cls-3" d="M427.8,237.91c5.38,0,10.58,4.87,10.58,10.42l-.08.59H419.23c.25,4.79,3.7,7.9,9,7.9,1.34,0,2.1-.42,2.27-1.18.34-1.6,1.09-2.35,2.35-2.35a2.14,2.14,0,0,1,2.27,2.18c0,2.35-3.61,3.36-7.22,3.36-6.47,0-10.84-4.62-10.84-10.58A10.69,10.69,0,0,1,427.8,237.91Zm.08,2a8.6,8.6,0,0,0-8.65,7.14h17.14A8.72,8.72,0,0,0,427.88,239.93Z"/><path class="cls-3" d="M442.92,254V240.35h-5.38v-2c3,0,5.38-1.76,5.38-6v-9.66h2v15.71h4.28v2h-4.28v13.27a3.45,3.45,0,0,0,3.53,3.28,3.82,3.82,0,0,0,3.7-2.35l1.76,1a6.37,6.37,0,0,1-5.38,3.28C445.27,258.83,442.92,257,442.92,254Z"/><path class="cls-3" d="M457.2,254V240.35h-5.38v-2c3,0,5.38-1.76,5.38-6v-9.66h2v15.71h4.28v2h-4.28v13.27a3.45,3.45,0,0,0,3.53,3.28,3.82,3.82,0,0,0,3.7-2.35l1.76,1a6.37,6.37,0,0,1-5.38,3.28C459.55,258.83,457.2,257,457.2,254Z"/><path class="cls-3" d="M477.69,237.91c5.38,0,10.58,4.87,10.58,10.42l-.08.59H469.12c.25,4.79,3.7,7.9,9,7.9,1.34,0,2.1-.42,2.27-1.18.34-1.6,1.09-2.35,2.35-2.35a2.14,2.14,0,0,1,2.27,2.18c0,2.35-3.61,3.36-7.22,3.36-6.47,0-10.84-4.62-10.84-10.58A10.69,10.69,0,0,1,477.69,237.91Zm.08,2a8.6,8.6,0,0,0-8.65,7.14h17.14A8.72,8.72,0,0,0,477.77,239.93Z"/></g><g class="cls-4"><path class="cls-3" d="M410.24,211.15c0-2.92,2.15-4.71,5.83-7-.41-.51-2.2-2.87-2-4.2a3.79,3.79,0,0,1,3.73-3.74,3.52,3.52,0,0,1,3.53,3.58c0,2-1.23,3.07-3.63,4.76l4.76,6.5,2.46-2.66,1,.51-.72.82a4.44,4.44,0,0,0-1.08,2.3,3.61,3.61,0,0,0,1,2.35l6,7.62a1.55,1.55,0,0,0,1.23.56c.41,0,1.43-.56,2-.56a1.47,1.47,0,0,1,1.43,1.48,1.86,1.86,0,0,1-1.89,1.64,4.54,4.54,0,0,1-3.48-2.2l-8-10.23c-2.71,2.4-5.12,3.58-7.11,3.58A5,5,0,0,1,410.24,211.15Zm5,3.94c2,0,4.09-1.38,6.4-3.38l-4.86-6.6-1.23.82c-2.25,1.48-3.48,2.87-3.48,5.12S413.15,215.09,415.25,215.09Zm1.18-12.38.56.92.87-.67c1.48-1.08,2.25-1.79,2.25-3.17a2.36,2.36,0,0,0-2.35-2.4,2.6,2.6,0,0,0-2.46,2.66A4.49,4.49,0,0,0,416.43,202.71Z"/></g><g class="cls-4"><path class="cls-3" d="M345.93,179.73a12.78,12.78,0,0,1-8.52,3.2,11.26,11.26,0,0,1-8.52-3.58,12.13,12.13,0,0,1-3.49-8.71,11.17,11.17,0,0,1,3.49-8.42,12.06,12.06,0,0,1,8.62-3.39c3.39,0,7.17,1.36,7.17,3.78a2.54,2.54,0,0,1-2.61,2.61c-1.45,0-2.32-.87-2.71-2.71-.29-.87-1.16-1.36-2.61-1.36-4.65,0-8.81,4.36-8.81,9.49,0,5.33,4.07,10,9.39,10a11.27,11.27,0,0,0,6.58-2Z"/><path class="cls-3" d="M367.43,182.44l-.58-3.2h-.1a10.51,10.51,0,0,1-8,3.68c-6.87,0-11.62-5.42-11.62-12.39s4.55-11.71,11.52-11.71a14,14,0,0,1,4.55.77,7.14,7.14,0,0,0,2.23.48c1.16,0,1.94-.29,2.23-.78h2.23v23.14Zm-17.81-11.91c0,5.91,3.68,10.07,9.1,10.07s9.1-4.16,9.1-10.36c0-5.42-3.78-9.1-9.29-9.1C353.2,161.14,349.61,165,349.61,170.53Z"/><path class="cls-3" d="M377.5,177.41V161.63h-6.2V159.3c3.49,0,6.2-2,6.2-7V141.2h2.32v18.1h4.94v2.32h-4.94v15.3a4,4,0,0,0,4.07,3.78,4.4,4.4,0,0,0,4.26-2.71l2,1.16a7.34,7.34,0,0,1-6.2,3.78C380.21,182.93,377.5,180.8,377.5,177.41Z"/><path class="cls-3" d="M402.09,158.82c6.2,0,12.2,5.62,12.2,12l-.1.68h-22c.29,5.52,4.26,9.1,10.36,9.1,1.55,0,2.42-.48,2.61-1.36.39-1.84,1.26-2.71,2.71-2.71a2.47,2.47,0,0,1,2.61,2.52c0,2.71-4.16,3.87-8.33,3.87-7.46,0-12.49-5.33-12.49-12.2C389.7,164.43,395.21,158.82,402.09,158.82Zm.1,2.32a9.91,9.91,0,0,0-10,8.23H412A10.05,10.05,0,0,0,402.18,161.14Z"/><path class="cls-3" d="M427.26,165.3a2.47,2.47,0,0,1-1.84-1.06,2.65,2.65,0,0,0-1.84-1c-1.55,0-2.32,1.94-2.42,4.16v12.3c0,1.45.39,1.94,1.94,1.94v.77H416.8v-.77c1.55,0,1.94-.48,1.94-1.94v-17c0-1.55-.77-2-2-2v-.77a13.77,13.77,0,0,0,4-.58h.48v3.49a6.39,6.39,0,0,1,5.33-3.49,3.15,3.15,0,0,1,3.29,3.29A2.55,2.55,0,0,1,427.26,165.3Z"/><path class="cls-3" d="M437.43,181.67v.77h-6.29v-.77c1.45,0,1.94-.48,1.94-1.94v-17c0-.87-.19-1.45-.68-1.74a2.34,2.34,0,0,0-1.36-.29v-.77a13.77,13.77,0,0,0,4-.58h.48v20.43C435.49,181.18,436,181.67,437.43,181.67Zm-3.29-38.44a2.93,2.93,0,0,0-3,2.9,3,3,0,0,0,3,3,2.93,2.93,0,0,0,2.9-3A2.85,2.85,0,0,0,434.13,143.23Z"/><path class="cls-3" d="M445.07,171.11v8.62c0,1.45.39,1.94,1.94,1.94v.77h-6.2v-.77c1.55,0,1.94-.48,1.94-1.94v-17c0-.87-.19-1.45-.68-1.74a2.34,2.34,0,0,0-1.36-.29v-.77a13,13,0,0,0,3.87-.58h.48V163a7.63,7.63,0,0,1,6.87-4c5.71,0,7.65,3.2,7.65,9.49v11.23c0,1.45.39,1.94,1.94,1.94v.77h-6.2v-.77c1.55,0,1.94-.48,1.94-1.94v-8.62c0-5.81-.78-8.62-5.52-8.62C446.43,162.5,445.07,165.6,445.07,171.11Z"/><path class="cls-3" d="M490,164.72c-1.45,0-3-1.74-3.68-1.74a2.45,2.45,0,0,0-1.36.68,9.62,9.62,0,0,1,2.13,6.58V204a16.27,16.27,0,1,1-32.53,0,16.53,16.53,0,0,1,16.36-16.36c5.81,0,10.75,2.23,10.75,5.81a2.68,2.68,0,0,1-2.61,2.9c-2,0-2.52-1.16-2.9-4-.29-2.23-2.42-2.61-5.23-2.61A14.43,14.43,0,0,0,456.79,204a14,14,0,1,0,28.08,0V188.64c0-2.32-3.29-5.81-9.1-5.81-7.26,0-11.62-4.84-11.62-11.91A11.86,11.86,0,0,1,476,158.82a10.18,10.18,0,0,1,7.16,2.71c2.32-1.84,4.16-2.71,5.52-2.71,2.23,0,3.78,1.06,3.78,3S491.26,164.72,490,164.72Zm-14.33-3.58c-5.13,0-9,4.55-9,9.68,0,5.42,3.68,9.68,9.2,9.68,5.71,0,8.91-4.16,8.91-10C484.77,165.11,481.19,161.14,475.67,161.14Z"/></g></svg>